<?xml version="1.0" encoding="UTF-8"?><svg width="24" height="240" viewBox="0 0 24 240" xmlns="http://www.w3.org/2000/svg" xmlns:xlink="http://www.w3.org/1999/xlink"><view id="checkmark" viewBox="0 0 24 24"/><svg width="24" height="24" viewBox="0 0 24 24" id="checkmark-" xmlns="http://www.w3.org/2000/svg"><path stroke-width=".15738" stroke-linecap="round" stroke-linejoin="round" stroke="#000" d="M12 0C5.383 0 0 5.383 0 12s5.383 12 12 12 12-5.383 12-12S18.617 0 12 0Zm0 22.031c-5.531 0-10.031-4.5-10.031-10.031 0-5.531 4.5-10.031 10.031-10.031 5.531 0 10.031 4.5 10.031 10.031 0 5.531-4.5 10.031-10.031 10.031Zm0 0"/><path d="m17.191 7.395-7.125 7.125-3.257-3.258a.985.985 0 0 0-1.391 0 .985.985 0 0 0 0 1.39l3.953 3.953a.985.985 0 0 0 1.39 0l7.821-7.82a.985.985 0 0 0 0-1.39.985.985 0 0 0-1.39 0Zm0 0"/></svg><view id="desktop" viewBox="0 24 24 24"/><svg width="24" height="24" viewBox="0 0 24 24" id="desktop-" y="24" xmlns="http://www.w3.org/2000/svg"><path fill="none" stroke-width="2.4" stroke-linecap="round" stroke-linejoin="round" stroke="#000" d="M12 16.8v4.802M7.2 22.8h9.6M1.2 12h21.6M2.399 1.2h19.204c.66 0 1.199.538 1.199 1.198v13.204c0 .66-.54 1.199-1.2 1.199H2.399c-.66 0-1.199-.54-1.199-1.2V2.399c0-.66.54-1.199 1.2-1.199Zm0 0"/></svg><view id="fullscreen" viewBox="0 48 24 24"/><svg width="24" height="24" viewBox="0 0 24 24" id="fullscreen-" y="48" xmlns="http://www.w3.org/2000/svg"><path d="m4.363 6.543 2.18-2.18-2.18-2.183L6.543 0H0v6.543l2.18-2.18Zm0 10.914-2.18 2.18L0 17.457V24h6.543l-2.18-2.18 2.18-2.18ZM17.457 6.543H6.543v10.91h10.91V6.543Zm-2.184 8.73H8.727V8.727h6.546ZM17.457 0l2.18 2.18-2.18 2.18 2.18 2.18 2.18-2.18 2.18 2.18V0Zm2.18 17.457-2.18 2.18 2.18 2.18L17.457 24H24v-6.543l-2.18 2.18Zm0 0"/></svg><view id="mobile" viewBox="0 72 18 24"/><svg width="18" height="24" viewBox="0 0 18 24" id="mobile-" y="72" xmlns="http://www.w3.org/2000/svg"><path fill="none" stroke-width="2" stroke-linecap="round" stroke-linejoin="round" stroke="#000" d="M1 14h12M1 4h12M6.5 16.5H7.5M2 1h10.002c.55 0 1 .449 1 .999V18c0 .55-.45 1-1 1H1.999c-.55 0-1-.45-1-1V2c0-.55.45-1 1-1Zm0 0" transform="scale(1.28571 1.2)"/></svg><view id="mobile_large" viewBox="0 96 24 24"/><svg width="24" height="24" viewBox="0 0 24 24" id="mobile_large-" y="96" xmlns="http://www.w3.org/2000/svg"><path stroke="#000" d="M7 0C5.352 0 4 1.355 4 3v18c0 1.645 1.352 3 3 3h9.996c1.645 0 3-1.355 3-3V3c0-1.645-1.355-3-3-3Zm0 2h9.996c.555 0 1 .445 1 1v18c0 .555-.445 1-1 1H7c-.555 0-1-.445-1-1V3c0-.555.445-1 1-1Zm5 17c-.555 0-1 .45-1 .996 0 .55.453 1.004 1 1.004.547 0 1-.45 1-1 0-.547-.445-1-1-1Zm0 0" stroke-width=".04688"/></svg><view id="moon" viewBox="0 120 24 24"/><svg width="24" height="24" viewBox="0 0 24 24" id="moon-" y="120" xmlns="http://www.w3.org/2000/svg"><path d="M12 18c3.313 0 6-2.688 6-6 0-3.313-2.688-6-6-6-3.313 0-6 2.688-6 6 0 3.313 2.688 6 6 6Zm0-13.2a1.2 1.2 0 0 0 1.2-1.198V1.199a1.2 1.2 0 0 0-2.4 0v2.403c0 .66.536 1.199 1.2 1.199Zm0 14.4a1.2 1.2 0 0 0-1.2 1.198v2.403a1.2 1.2 0 0 0 2.4 0v-2.403A1.2 1.2 0 0 0 12 19.2ZM5.21 6.91a1.205 1.205 0 0 0 1.685-.015c.46-.465.468-1.211.015-1.684l-1.7-1.695a1.193 1.193 0 0 0-1.679.015 1.193 1.193 0 0 0-.015 1.68Zm13.58 10.18a1.205 1.205 0 0 0-1.685.015 1.205 1.205 0 0 0-.015 1.684l1.7 1.695c.468.457 1.218.45 1.679-.015.465-.461.472-1.211.015-1.68ZM4.8 12a1.2 1.2 0 0 0-1.198-1.2H1.199a1.2 1.2 0 0 0 0 2.4h2.403A1.2 1.2 0 0 0 4.8 12Zm18-1.2h-2.402a1.2 1.2 0 0 0 0 2.4h2.403a1.2 1.2 0 0 0 0-2.4ZM5.21 17.09l-1.694 1.7a1.2 1.2 0 1 0 1.695 1.694l1.7-1.695a1.205 1.205 0 0 0-.016-1.684 1.205 1.205 0 0 0-1.684-.015Zm12.731-9.828c.317 0 .622-.13.848-.352l1.695-1.7a1.2 1.2 0 1 0-1.695-1.694l-1.7 1.695a1.203 1.203 0 0 0 .852 2.05Zm0 0"/></svg><view id="pseudo_class" viewBox="0 144 24 24"/><svg width="24" height="24" viewBox="0 0 24 24" id="pseudo_class-" y="144" xmlns="http://www.w3.org/2000/svg"><path stroke-width=".09376" stroke-linecap="round" stroke-linejoin="round" stroke="#000" d="M5 0H1C.45 0 0 .45 0 1v4c0 .55.45 1 1 1h4c.55 0 1-.45 1-1V1c0-.55-.45-1-1-1ZM4 4H2V2h2ZM5 18H1c-.55 0-1 .45-1 1v4c0 .55.45 1 1 1h4c.55 0 1-.45 1-1v-4c0-.55-.45-1-1-1Zm-1 4H2v-2h2ZM23 18h-4c-.55 0-1 .45-1 1v4c0 .55.45 1 1 1h4c.55 0 1-.45 1-1v-4c0-.55-.45-1-1-1Zm-1 4h-2v-2h2ZM23 0h-4a1 1 0 0 0-1 1v4a1 1 0 0 0 1 1h4a1 1 0 0 0 1-1V1a1 1 0 0 0-1-1ZM12 2c-.55 0-1 .45-1 1s.45 1 1 1 1-.45 1-1-.45-1-1-1ZM8 2c-.55 0-1 .45-1 1s.45 1 1 1 1-.45 1-1-.45-1-1-1ZM16 2c-.55 0-1 .45-1 1s.45 1 1 1 1-.45 1-1-.45-1-1-1ZM12 20c-.55 0-1 .45-1 1s.45 1 1 1 1-.45 1-1-.45-1-1-1ZM3 13c.55 0 1-.45 1-1s-.45-1-1-1-1 .45-1 1 .45 1 1 1ZM3 17c.55 0 1-.45 1-1s-.45-1-1-1-1 .45-1 1 .45 1 1 1ZM3 9c.55 0 1-.45 1-1s-.45-1-1-1-1 .45-1 1 .45 1 1 1ZM21 13c.55 0 1-.45 1-1s-.45-1-1-1-1 .45-1 1 .45 1 1 1ZM21 17c.55 0 1-.45 1-1s-.45-1-1-1-1 .45-1 1 .45 1 1 1ZM21 9c.55 0 1-.45 1-1s-.45-1-1-1-1 .45-1 1 .45 1 1 1ZM8 20c-.55 0-1 .45-1 1s.45 1 1 1 1-.45 1-1-.45-1-1-1ZM16 20c-.55 0-1 .45-1 1s.45 1 1 1 1-.45 1-1-.45-1-1-1Zm0 0"/></svg><view id="shrinkscreen" viewBox="0 168 24 24"/><svg width="24" height="24" viewBox="0 0 24 24" id="shrinkscreen-" y="168" xmlns="http://www.w3.org/2000/svg"><path fill="#33363F" d="M15 15v-1h-1v1Zm5.293 6.707a1 1 0 1 0 1.414-1.414ZM15 9h-1v1h1Zm6.707-5.293a1 1 0 1 0-1.414-1.414ZM9 15h1v-1H9Zm-6.707 5.293a1 1 0 1 0 1.414 1.414ZM9 9v1h1V9ZM3.707 2.293a1 1 0 1 0-1.414 1.414ZM16 20v-5h-2v5Zm-1-4h5v-2h-5Zm-.707-.293 6 6 1.414-1.414-6-6ZM14 4v5h2V4Zm1 6h5V8h-5Zm.707-.293 6-6-1.414-1.414-6 6ZM10 20v-5H8v5Zm-1-6H4v2h5Zm-.707.293-6 6 1.414 1.414 6-6ZM8 4v5h2V4Zm1 4H4v2h5Zm.707.293-6-6-1.414 1.414 6 6Zm0 0"/></svg><view id="sun" viewBox="0 192 22 24"/><svg width="22" height="24" viewBox="0 0 22 24" id="sun-" y="192" xmlns="http://www.w3.org/2000/svg"><path d="M21.754 16.5a1.226 1.226 0 0 0-1.047-.602c-3.266-.02-6.266-1.746-7.883-4.53a8.832 8.832 0 0 1 .035-8.97c.204-.359.204-.8 0-1.16a1.273 1.273 0 0 0-1.02-.636h-.136C6.066.598 1.238 4.566.258 10.016c-.98 5.449 2.168 10.804 7.465 12.695 5.297 1.894 11.21-.223 14.027-5.016a1.17 1.17 0 0 0 .004-1.195Zm0 0"/></svg><view id="tablet" viewBox="0 216 22 24"/><svg width="22" height="24" viewBox="0 0 22 24" id="tablet-" y="216" xmlns="http://www.w3.org/2000/svg"><path fill="none" stroke-width="2" stroke-linecap="round" stroke-linejoin="round" stroke="#000" d="M7.501 16.5H10.5M2 1h13.998a1 1 0 0 1 1 .999V18a1 1 0 0 1-1 1H2.001a1 1 0 0 1-1-1V2a1 1 0 0 1 1-1Zm0 0" transform="scale(1.22222 1.2)"/></svg></svg>