<?xml version="1.0" encoding="UTF-8"?>
<svg xmlns="http://www.w3.org/2000/svg" xmlns:xlink="http://www.w3.org/1999/xlink" width="24" height="24" viewBox="0 0 24 24">
<path fill-rule="nonzero" fill="rgb(0%, 0%, 0%)" fill-opacity="1" stroke-width="2" stroke-linecap="round" stroke-linejoin="round" stroke="rgb(0%, 0%, 0%)" stroke-opacity="1" stroke-miterlimit="4" d="M 152.501007 0 C 68.407027 0 0 68.407027 0 152.501007 C 0 236.594987 68.407027 305.002014 152.501007 305.002014 C 236.594987 305.002014 305.002014 236.594987 305.002014 152.501007 C 305.002014 68.407027 236.594987 0 152.501007 0 Z M 152.501007 279.982318 C 82.207574 279.982318 25.019696 222.79444 25.019696 152.501007 C 25.019696 82.207574 82.207574 25.019696 152.501007 25.019696 C 222.79444 25.019696 279.982318 82.207574 279.982318 152.501007 C 279.982318 222.79444 222.79444 279.982318 152.501007 279.982318 Z M 152.501007 279.982318 " transform="matrix(0.078688, 0, 0, 0.078688, 0, 0)"/>
<path fill-rule="nonzero" fill="rgb(0%, 0%, 0%)" fill-opacity="1" d="M 17.191406 7.394531 L 10.066406 14.519531 L 6.808594 11.261719 C 6.425781 10.878906 5.800781 10.878906 5.417969 11.261719 C 5.035156 11.644531 5.035156 12.269531 5.417969 12.652344 L 9.371094 16.605469 C 9.554688 16.789062 9.804688 16.894531 10.066406 16.894531 C 10.316406 16.894531 10.570312 16.796875 10.761719 16.605469 L 18.582031 8.785156 C 18.964844 8.402344 18.964844 7.777344 18.582031 7.394531 C 18.199219 7.011719 17.574219 7.011719 17.191406 7.394531 Z M 17.191406 7.394531 "/>
</svg>
