<?xml version="1.0" encoding="UTF-8"?>
<svg xmlns="http://www.w3.org/2000/svg" xmlns:xlink="http://www.w3.org/1999/xlink" width="24" height="24" viewBox="0 0 24 24">
<path fill-rule="nonzero" fill="rgb(0%, 0%, 0%)" fill-opacity="1" d="M 4.363281 6.542969 L 6.542969 4.363281 L 4.363281 2.179688 L 6.542969 0 L 0 0 L 0 6.542969 L 2.179688 4.363281 Z M 4.363281 17.457031 L 2.183594 19.636719 L 0 17.457031 L 0 24 L 6.542969 24 L 4.363281 21.820312 L 6.542969 19.640625 Z M 17.457031 6.542969 L 6.542969 6.542969 L 6.542969 17.453125 L 17.453125 17.453125 L 17.453125 6.542969 Z M 15.273438 15.273438 L 8.726562 15.273438 L 8.726562 8.726562 L 15.273438 8.726562 Z M 17.457031 0 L 19.636719 2.179688 L 17.457031 4.359375 L 19.636719 6.539062 L 21.816406 4.359375 L 23.996094 6.539062 L 23.996094 0 Z M 19.636719 17.457031 L 17.457031 19.636719 L 19.636719 21.816406 L 17.457031 24 L 24 24 L 24 17.457031 L 21.820312 19.636719 Z M 19.636719 17.457031 "/>
</svg>
