<?xml version="1.0" encoding="UTF-8"?>
<svg xmlns="http://www.w3.org/2000/svg" xmlns:xlink="http://www.w3.org/1999/xlink" width="24" height="24" viewBox="0 0 24 24">
<path fill-rule="nonzero" fill="rgb(0%, 0%, 0%)" fill-opacity="1" stroke-width="1" stroke-linecap="butt" stroke-linejoin="miter" stroke="rgb(0%, 0%, 0%)" stroke-opacity="1" stroke-miterlimit="4" d="M 149.333333 0 C 114.166667 0 85.333333 28.916667 85.333333 64 L 85.333333 448 C 85.333333 483.083333 114.166667 512 149.333333 512 L 362.583333 512 C 397.666667 512 426.583333 483.083333 426.583333 448 L 426.583333 64 C 426.583333 28.916667 397.666667 0 362.583333 0 Z M 149.333333 42.666667 L 362.583333 42.666667 C 374.416667 42.666667 383.916667 52.166667 383.916667 64 L 383.916667 448 C 383.916667 459.833333 374.416667 469.333333 362.583333 469.333333 L 149.333333 469.333333 C 137.5 469.333333 128 459.833333 128 448 L 128 64 C 128 52.166667 137.5 42.666667 149.333333 42.666667 Z M 256 405.333333 C 244.166667 405.333333 234.666667 414.916667 234.666667 426.583333 C 234.666667 438.333333 244.333333 448 256 448 C 267.666667 448 277.333333 438.416667 277.333333 426.666667 C 277.333333 415 267.833333 405.333333 256 405.333333 Z M 256 405.333333 " transform="matrix(0.046875, 0, 0, 0.046875, 0, 0)"/>
</svg>
