<?xml version="1.0" encoding="UTF-8"?>
<svg xmlns="http://www.w3.org/2000/svg" xmlns:xlink="http://www.w3.org/1999/xlink" width="24" height="24" viewBox="0 0 24 24">
<path fill-rule="nonzero" fill="rgb(0%, 0%, 0%)" fill-opacity="1" d="M 12 18 C 15.3125 18 18 15.3125 18 12 C 18 8.6875 15.3125 6 12 6 C 8.6875 6 6 8.6875 6 12 C 6 15.3125 8.6875 18 12 18 Z M 12 4.800781 C 12.664062 4.800781 13.199219 4.261719 13.199219 3.601562 L 13.199219 1.199219 C 13.199219 0.539062 12.664062 0 12 0 C 11.335938 0 10.800781 0.539062 10.800781 1.199219 L 10.800781 3.601562 C 10.800781 4.261719 11.335938 4.800781 12 4.800781 Z M 12 19.199219 C 11.335938 19.199219 10.800781 19.738281 10.800781 20.398438 L 10.800781 22.800781 C 10.800781 23.460938 11.335938 24 12 24 C 12.664062 24 13.199219 23.460938 13.199219 22.800781 L 13.199219 20.398438 C 13.199219 19.738281 12.664062 19.199219 12 19.199219 Z M 5.210938 6.910156 C 5.683594 7.363281 6.429688 7.355469 6.894531 6.894531 C 7.355469 6.429688 7.363281 5.683594 6.910156 5.210938 L 5.210938 3.515625 C 4.742188 3.058594 3.992188 3.066406 3.53125 3.53125 C 3.066406 3.992188 3.058594 4.742188 3.515625 5.210938 Z M 18.789062 17.089844 C 18.316406 16.636719 17.570312 16.644531 17.105469 17.105469 C 16.644531 17.570312 16.636719 18.316406 17.089844 18.789062 L 18.789062 20.484375 C 19.257812 20.941406 20.007812 20.933594 20.46875 20.46875 C 20.933594 20.007812 20.941406 19.257812 20.484375 18.789062 Z M 4.800781 12 C 4.800781 11.335938 4.261719 10.800781 3.601562 10.800781 L 1.199219 10.800781 C 0.539062 10.800781 0 11.335938 0 12 C 0 12.664062 0.539062 13.199219 1.199219 13.199219 L 3.601562 13.199219 C 4.261719 13.199219 4.800781 12.664062 4.800781 12 Z M 22.800781 10.800781 L 20.398438 10.800781 C 19.738281 10.800781 19.199219 11.335938 19.199219 12 C 19.199219 12.664062 19.738281 13.199219 20.398438 13.199219 L 22.800781 13.199219 C 23.460938 13.199219 24 12.664062 24 12 C 24 11.335938 23.460938 10.800781 22.800781 10.800781 Z M 5.210938 17.089844 L 3.515625 18.789062 C 3.203125 19.089844 3.078125 19.535156 3.1875 19.957031 C 3.296875 20.375 3.625 20.703125 4.042969 20.8125 C 4.464844 20.921875 4.910156 20.796875 5.210938 20.484375 L 6.910156 18.789062 C 7.363281 18.316406 7.355469 17.570312 6.894531 17.105469 C 6.429688 16.644531 5.683594 16.636719 5.210938 17.089844 Z M 17.941406 7.261719 C 18.257812 7.261719 18.5625 7.132812 18.789062 6.910156 L 20.484375 5.210938 C 20.796875 4.910156 20.921875 4.464844 20.8125 4.042969 C 20.703125 3.625 20.375 3.296875 19.957031 3.1875 C 19.535156 3.078125 19.089844 3.203125 18.789062 3.515625 L 17.089844 5.210938 C 16.75 5.554688 16.644531 6.070312 16.832031 6.519531 C 17.015625 6.96875 17.453125 7.261719 17.941406 7.261719 Z M 17.941406 7.261719 "/>
</svg>
