<?xml version="1.0" encoding="UTF-8"?>
<svg xmlns="http://www.w3.org/2000/svg" xmlns:xlink="http://www.w3.org/1999/xlink" width="24" height="24" viewBox="0 0 24 24">
<path fill-rule="nonzero" fill="rgb(20%, 21.176471%, 24.705882%)" fill-opacity="1" d="M 15 15 L 15 14 L 14 14 L 14 15 Z M 20.292969 21.707031 C 20.683594 22.097656 21.316406 22.097656 21.707031 21.707031 C 22.097656 21.316406 22.097656 20.683594 21.707031 20.292969 Z M 15 9 L 14 9 L 14 10 L 15 10 Z M 21.707031 3.707031 C 22.097656 3.316406 22.097656 2.683594 21.707031 2.292969 C 21.316406 1.902344 20.683594 1.902344 20.292969 2.292969 Z M 9 15 L 10 15 L 10 14 L 9 14 Z M 2.292969 20.292969 C 1.902344 20.683594 1.902344 21.316406 2.292969 21.707031 C 2.683594 22.097656 3.316406 22.097656 3.707031 21.707031 Z M 9 9 L 9 10 L 10 10 L 10 9 Z M 3.707031 2.292969 C 3.316406 1.902344 2.683594 1.902344 2.292969 2.292969 C 1.902344 2.683594 1.902344 3.316406 2.292969 3.707031 Z M 16 20 L 16 15 L 14 15 L 14 20 Z M 15 16 L 20 16 L 20 14 L 15 14 Z M 14.292969 15.707031 L 20.292969 21.707031 L 21.707031 20.292969 L 15.707031 14.292969 Z M 14 4 L 14 9 L 16 9 L 16 4 Z M 15 10 L 20 10 L 20 8 L 15 8 Z M 15.707031 9.707031 L 21.707031 3.707031 L 20.292969 2.292969 L 14.292969 8.292969 Z M 10 20 L 10 15 L 8 15 L 8 20 Z M 9 14 L 4 14 L 4 16 L 9 16 Z M 8.292969 14.292969 L 2.292969 20.292969 L 3.707031 21.707031 L 9.707031 15.707031 Z M 8 4 L 8 9 L 10 9 L 10 4 Z M 9 8 L 4 8 L 4 10 L 9 10 Z M 9.707031 8.292969 L 3.707031 2.292969 L 2.292969 3.707031 L 8.292969 9.707031 Z M 9.707031 8.292969 "/>
</svg>
