<?xml version="1.0" encoding="UTF-8"?>
<svg xmlns="http://www.w3.org/2000/svg" xmlns:xlink="http://www.w3.org/1999/xlink" width="22" height="24" viewBox="0 0 22 24">
<path fill-rule="nonzero" fill="rgb(0%, 0%, 0%)" fill-opacity="1" d="M 21.753906 16.5 C 21.539062 16.132812 21.140625 15.902344 20.707031 15.898438 C 17.441406 15.878906 14.441406 14.152344 12.824219 11.367188 C 11.203125 8.585938 11.21875 5.167969 12.859375 2.398438 C 13.0625 2.039062 13.0625 1.597656 12.859375 1.238281 C 12.648438 0.871094 12.265625 0.628906 11.839844 0.601562 L 11.703125 0.601562 C 6.066406 0.597656 1.238281 4.566406 0.257812 10.015625 C -0.722656 15.464844 2.425781 20.820312 7.722656 22.710938 C 13.019531 24.605469 18.933594 22.488281 21.75 17.695312 C 21.96875 17.328125 21.972656 16.871094 21.753906 16.5 Z M 21.753906 16.5 "/>
</svg>
